<?xml version="1.0"?>
<svg version="1.1" xmlns="http://www.w3.org/2000/svg" width="190px" height="40px" style="border: 2px solid red;border-radius: 25px;"><path fill="#ffffff" d="M53.296,16.568q-3.696,0-6.204,2.673q-2.475,2.64-2.475,6.435l0,14.124l2.079,0l0-10.362l13.266,0l0,10.362l2.079,0l0-14.124q0-3.795-2.475-6.435q-2.574-2.673-6.27-2.673z M59.962,27.392l-13.266,0l0-1.716q0-2.838,1.914-4.917q1.947-2.112,4.686-2.112t4.752,2.112q1.914,2.079,1.914,4.917l0,1.716z M85.69672,16.667l-2.079,0l0,14.091q0,3.036-2.112,5.082q-2.079,1.98-4.95,1.98q-3.135,0-5.049-1.98q-1.947-2.013-1.947-5.082l0-14.091l-2.112,0l0,14.091q0,3.762,2.574,6.402q2.607,2.706,6.534,2.706q3.663,0,6.435-2.706q2.706-2.64,2.706-6.402l0-14.091z M107.60344,16.7l-17.886,0l0,2.013l8.118,0l0,21.153l2.046,0l0-21.153l7.722,0l0-2.013z M120.63316,16.7q-3.729,0-6.402,2.673q-2.706,2.706-2.706,6.435l0,4.983q0,3.663,2.706,6.369t6.402,2.706q3.729,0,6.435-2.706q2.673-2.673,2.673-6.369l0-4.983q0-3.762-2.673-6.435t-6.435-2.673z M127.69516,25.808l0,4.983q0,3.003-2.112,5.049q-2.079,1.98-4.95,1.98t-4.917-1.98q-2.112-2.046-2.112-5.049l0-4.983q0-2.772,2.112-4.95q2.112-2.112,4.917-2.112q2.772,0,4.95,2.112q2.112,2.178,2.112,4.95z M156.2956,28.283l7.854-11.616l-2.508,0l-6.6,9.9l-6.996-9.9l-2.112,0l7.854,11.616l-8.25,11.55l2.508,0l6.996-9.9l6.6,9.9l2.112,0z"/><path fill="#5493bf" d=""/></svg>
